<svg width="247" height="248" viewBox="0 0 247 248" fill="none" xmlns="http://www.w3.org/2000/svg">
<path d="M0.0546875 4.97656H59.6493ZM76.6763 4.97656H119.244ZM127.757 4.97656H136.271ZM161.811 4.97656H170.325ZM187.352 4.97656H246.947ZM0.0546875 13.4901H8.5682ZM51.1358 13.4901H59.6493ZM93.7033 13.4901H102.217ZM110.73 13.4901H161.811ZM187.352 13.4901H195.865ZM238.433 13.4901H246.947ZM0.0546875 22.0036H8.5682ZM17.0817 22.0036H42.6223ZM51.1358 22.0036H59.6493ZM68.1628 22.0036H76.6763ZM93.7033 22.0036H119.244ZM127.757 22.0036H136.271ZM153.298 22.0036H161.811ZM170.325 22.0036H178.838ZM187.352 22.0036H195.865ZM204.379 22.0036H229.92ZM238.433 22.0036H246.947ZM0.0546875 30.5171H8.5682ZM17.0817 30.5171H42.6223ZM51.1358 30.5171H59.6493ZM68.1628 30.5171H85.1898ZM93.7033 30.5171H102.217ZM119.244 30.5171H136.271ZM144.784 30.5171H161.811ZM187.352 30.5171H195.865ZM204.379 30.5171H229.92ZM238.433 30.5171H246.947ZM0.0546875 39.0306H8.5682ZM17.0817 39.0306H42.6223ZM51.1358 39.0306H59.6493ZM68.1628 39.0306H76.6763ZM85.1898 39.0306H102.217ZM136.271 39.0306H178.838ZM187.352 39.0306H195.865ZM204.379 39.0306H229.92ZM238.433 39.0306H246.947ZM0.0546875 47.5441H8.5682ZM51.1358 47.5441H59.6493ZM68.1628 47.5441H85.1898ZM93.7033 47.5441H110.73ZM127.757 47.5441H144.784ZM187.352 47.5441H195.865ZM238.433 47.5441H246.947ZM0.0546875 56.0576H59.6493ZM68.1628 56.0576H76.6763ZM85.1898 56.0576H93.7033ZM102.217 56.0576H110.73ZM119.244 56.0576H127.757ZM136.271 56.0576H144.784ZM153.298 56.0576H161.811ZM170.325 56.0576H178.838ZM187.352 56.0576H246.947ZM68.1628 64.5712H85.1898ZM93.7033 64.5712H102.217ZM119.244 64.5712H136.271ZM161.811 64.5712H170.325ZM0.0546875 73.0847H8.5682ZM17.0817 73.0847H59.6493ZM85.1898 73.0847H93.7033ZM136.271 73.0847H161.811ZM170.325 73.0847H178.838ZM187.352 73.0847H229.92ZM0.0546875 81.5982H8.5682ZM25.5952 81.5982H42.6223ZM93.7033 81.5982H127.757ZM161.811 81.5982H170.325ZM178.838 81.5982H212.893ZM238.433 81.5982H246.947ZM0.0546875 90.1117H8.5682ZM17.0817 90.1117H25.5952ZM34.1087 90.1117H42.6223ZM51.1358 90.1117H59.6493ZM68.1628 90.1117H85.1898ZM93.7033 90.1117H144.784ZM153.298 90.1117H161.811ZM170.325 90.1117H187.352ZM212.893 90.1117H238.433ZM8.5682 98.6252H42.6223ZM68.1628 98.6252H76.6763ZM85.1898 98.6252H119.244ZM127.757 98.6252H144.784ZM153.298 98.6252H161.811ZM187.352 98.6252H195.865ZM204.379 98.6252H212.893ZM0.0546875 107.139H17.0817ZM51.1358 107.139H59.6493ZM68.1628 107.139H85.1898ZM102.217 107.139H110.73ZM119.244 107.139H136.271ZM144.784 107.139H161.811ZM178.838 107.139H187.352ZM212.893 107.139H229.92ZM0.0546875 115.652H8.5682ZM17.0817 115.652H25.5952ZM34.1087 115.652H51.1358ZM85.1898 115.652H110.73ZM136.271 115.652H144.784ZM161.811 115.652H221.406ZM229.92 115.652H246.947ZM0.0546875 124.166H8.5682ZM17.0817 124.166H25.5952ZM42.6223 124.166H59.6493ZM68.1628 124.166H85.1898ZM93.7033 124.166H110.73ZM127.757 124.166H136.271ZM153.298 124.166H161.811ZM170.325 124.166H178.838ZM187.352 124.166H195.865ZM204.379 124.166H212.893ZM0.0546875 132.679H8.5682ZM17.0817 132.679H25.5952ZM59.6493 132.679H76.6763ZM85.1898 132.679H110.73ZM119.244 132.679H144.784ZM153.298 132.679H161.811ZM170.325 132.679H178.838ZM212.893 132.679H221.406ZM238.433 132.679H246.947ZM0.0546875 141.193H8.5682ZM17.0817 141.193H34.1087ZM51.1358 141.193H76.6763ZM102.217 141.193H110.73ZM127.757 141.193H136.271ZM144.784 141.193H170.325ZM178.838 141.193H187.352ZM195.865 141.193H204.379ZM221.406 141.193H238.433ZM0.0546875 149.706H8.5682ZM25.5952 149.706H42.6223ZM76.6763 149.706H85.1898ZM93.7033 149.706H102.217ZM110.73 149.706H127.757ZM136.271 149.706H144.784ZM161.811 149.706H170.325ZM187.352 149.706H195.865ZM204.379 149.706H212.893ZM229.92 149.706H246.947ZM0.0546875 158.22H8.5682ZM17.0817 158.22H34.1087ZM51.1358 158.22H85.1898ZM102.217 158.22H144.784ZM153.298 158.22H161.811ZM170.325 158.22H187.352ZM204.379 158.22H221.406ZM0.0546875 166.733H8.5682ZM17.0817 166.733H25.5952ZM42.6223 166.733H51.1358ZM68.1628 166.733H102.217ZM110.73 166.733H119.244ZM153.298 166.733H170.325ZM0.0546875 175.247H8.5682ZM25.5952 175.247H68.1628ZM85.1898 175.247H110.73ZM119.244 175.247H136.271ZM144.784 175.247H153.298ZM170.325 175.247H246.947ZM68.1628 183.76H93.7033ZM136.271 183.76H144.784ZM153.298 183.76H161.811ZM170.325 183.76H178.838ZM204.379 183.76H221.406ZM238.433 183.76H246.947ZM0.0546875 192.274H59.6493ZM85.1898 192.274H93.7033ZM102.217 192.274H110.73ZM127.757 192.274H136.271ZM144.784 192.274H178.838ZM187.352 192.274H195.865ZM204.379 192.274H221.406ZM229.92 192.274H238.433ZM0.0546875 200.787H8.5682ZM51.1358 200.787H59.6493ZM68.1628 200.787H76.6763ZM102.217 200.787H110.73ZM119.244 200.787H136.271ZM161.811 200.787H178.838ZM204.379 200.787H212.893ZM229.92 200.787H238.433ZM0.0546875 209.301H8.5682ZM17.0817 209.301H42.6223ZM51.1358 209.301H59.6493ZM68.1628 209.301H76.6763ZM93.7033 209.301H110.73ZM136.271 209.301H161.811ZM170.325 209.301H229.92ZM0.0546875 217.814H8.5682ZM17.0817 217.814H42.6223ZM51.1358 217.814H59.6493ZM68.1628 217.814H76.6763ZM102.217 217.814H110.73ZM119.244 217.814H127.757ZM161.811 217.814H170.325ZM178.838 217.814H187.352ZM195.865 217.814H204.379ZM229.92 217.814H246.947ZM0.0546875 226.328H8.5682ZM17.0817 226.328H42.6223ZM51.1358 226.328H59.6493ZM68.1628 226.328H76.6763ZM93.7033 226.328H170.325ZM187.352 226.328H195.865ZM204.379 226.328H221.406ZM229.92 226.328H238.433ZM0.0546875 234.841H8.5682ZM51.1358 234.841H59.6493ZM76.6763 234.841H110.73ZM127.757 234.841H136.271ZM153.298 234.841H161.811ZM170.325 234.841H187.352ZM195.865 234.841H212.893ZM229.92 234.841H238.433ZM0.0546875 243.355H59.6493ZM68.1628 243.355H76.6763ZM110.73 243.355H127.757ZM136.271 243.355H170.325ZM195.865 243.355H204.379ZM221.406 243.355H229.92Z" fill="black"/>
<path d="M0.0546875 4.97656H59.6493M76.6763 4.97656H119.244M127.757 4.97656H136.271M161.811 4.97656H170.325M187.352 4.97656H246.947M0.0546875 13.4901H8.5682M51.1358 13.4901H59.6493M93.7033 13.4901H102.217M110.73 13.4901H161.811M187.352 13.4901H195.865M238.433 13.4901H246.947M0.0546875 22.0036H8.5682M17.0817 22.0036H42.6223M51.1358 22.0036H59.6493M68.1628 22.0036H76.6763M93.7033 22.0036H119.244M127.757 22.0036H136.271M153.298 22.0036H161.811M170.325 22.0036H178.838M187.352 22.0036H195.865M204.379 22.0036H229.92M238.433 22.0036H246.947M0.0546875 30.5171H8.5682M17.0817 30.5171H42.6223M51.1358 30.5171H59.6493M68.1628 30.5171H85.1898M93.7033 30.5171H102.217M119.244 30.5171H136.271M144.784 30.5171H161.811M187.352 30.5171H195.865M204.379 30.5171H229.92M238.433 30.5171H246.947M0.0546875 39.0306H8.5682M17.0817 39.0306H42.6223M51.1358 39.0306H59.6493M68.1628 39.0306H76.6763M85.1898 39.0306H102.217M136.271 39.0306H178.838M187.352 39.0306H195.865M204.379 39.0306H229.92M238.433 39.0306H246.947M0.0546875 47.5441H8.5682M51.1358 47.5441H59.6493M68.1628 47.5441H85.1898M93.7033 47.5441H110.73M127.757 47.5441H144.784M187.352 47.5441H195.865M238.433 47.5441H246.947M0.0546875 56.0576H59.6493M68.1628 56.0576H76.6763M85.1898 56.0576H93.7033M102.217 56.0576H110.73M119.244 56.0576H127.757M136.271 56.0576H144.784M153.298 56.0576H161.811M170.325 56.0576H178.838M187.352 56.0576H246.947M68.1628 64.5712H85.1898M93.7033 64.5712H102.217M119.244 64.5712H136.271M161.811 64.5712H170.325M0.0546875 73.0847H8.5682M17.0817 73.0847H59.6493M85.1898 73.0847H93.7033M136.271 73.0847H161.811M170.325 73.0847H178.838M187.352 73.0847H229.92M0.0546875 81.5982H8.5682M25.5952 81.5982H42.6223M93.7033 81.5982H127.757M161.811 81.5982H170.325M178.838 81.5982H212.893M238.433 81.5982H246.947M0.0546875 90.1117H8.5682M17.0817 90.1117H25.5952M34.1087 90.1117H42.6223M51.1358 90.1117H59.6493M68.1628 90.1117H85.1898M93.7033 90.1117H144.784M153.298 90.1117H161.811M170.325 90.1117H187.352M212.893 90.1117H238.433M8.5682 98.6252H42.6223M68.1628 98.6252H76.6763M85.1898 98.6252H119.244M127.757 98.6252H144.784M153.298 98.6252H161.811M187.352 98.6252H195.865M204.379 98.6252H212.893M0.0546875 107.139H17.0817M51.1358 107.139H59.6493M68.1628 107.139H85.1898M102.217 107.139H110.73M119.244 107.139H136.271M144.784 107.139H161.811M178.838 107.139H187.352M212.893 107.139H229.92M0.0546875 115.652H8.5682M17.0817 115.652H25.5952M34.1087 115.652H51.1358M85.1898 115.652H110.73M136.271 115.652H144.784M161.811 115.652H221.406M229.92 115.652H246.947M0.0546875 124.166H8.5682M17.0817 124.166H25.5952M42.6223 124.166H59.6493M68.1628 124.166H85.1898M93.7033 124.166H110.73M127.757 124.166H136.271M153.298 124.166H161.811M170.325 124.166H178.838M187.352 124.166H195.865M204.379 124.166H212.893M0.0546875 132.679H8.5682M17.0817 132.679H25.5952M59.6493 132.679H76.6763M85.1898 132.679H110.73M119.244 132.679H144.784M153.298 132.679H161.811M170.325 132.679H178.838M212.893 132.679H221.406M238.433 132.679H246.947M0.0546875 141.193H8.5682M17.0817 141.193H34.1087M51.1358 141.193H76.6763M102.217 141.193H110.73M127.757 141.193H136.271M144.784 141.193H170.325M178.838 141.193H187.352M195.865 141.193H204.379M221.406 141.193H238.433M0.0546875 149.706H8.5682M25.5952 149.706H42.6223M76.6763 149.706H85.1898M93.7033 149.706H102.217M110.73 149.706H127.757M136.271 149.706H144.784M161.811 149.706H170.325M187.352 149.706H195.865M204.379 149.706H212.893M229.92 149.706H246.947M0.0546875 158.22H8.5682M17.0817 158.22H34.1087M51.1358 158.22H85.1898M102.217 158.22H144.784M153.298 158.22H161.811M170.325 158.22H187.352M204.379 158.22H221.406M0.0546875 166.733H8.5682M17.0817 166.733H25.5952M42.6223 166.733H51.1358M68.1628 166.733H102.217M110.73 166.733H119.244M153.298 166.733H170.325M0.0546875 175.247H8.5682M25.5952 175.247H68.1628M85.1898 175.247H110.73M119.244 175.247H136.271M144.784 175.247H153.298M170.325 175.247H246.947M68.1628 183.76H93.7033M136.271 183.76H144.784M153.298 183.76H161.811M170.325 183.76H178.838M204.379 183.76H221.406M238.433 183.76H246.947M0.0546875 192.274H59.6493M85.1898 192.274H93.7033M102.217 192.274H110.73M127.757 192.274H136.271M144.784 192.274H178.838M187.352 192.274H195.865M204.379 192.274H221.406M229.92 192.274H238.433M0.0546875 200.787H8.5682M51.1358 200.787H59.6493M68.1628 200.787H76.6763M102.217 200.787H110.73M119.244 200.787H136.271M161.811 200.787H178.838M204.379 200.787H212.893M229.92 200.787H238.433M0.0546875 209.301H8.5682M17.0817 209.301H42.6223M51.1358 209.301H59.6493M68.1628 209.301H76.6763M93.7033 209.301H110.73M136.271 209.301H161.811M170.325 209.301H229.92M0.0546875 217.814H8.5682M17.0817 217.814H42.6223M51.1358 217.814H59.6493M68.1628 217.814H76.6763M102.217 217.814H110.73M119.244 217.814H127.757M161.811 217.814H170.325M178.838 217.814H187.352M195.865 217.814H204.379M229.92 217.814H246.947M0.0546875 226.328H8.5682M17.0817 226.328H42.6223M51.1358 226.328H59.6493M68.1628 226.328H76.6763M93.7033 226.328H170.325M187.352 226.328H195.865M204.379 226.328H221.406M229.92 226.328H238.433M0.0546875 234.841H8.5682M51.1358 234.841H59.6493M76.6763 234.841H110.73M127.757 234.841H136.271M153.298 234.841H161.811M170.325 234.841H187.352M195.865 234.841H212.893M229.92 234.841H238.433M0.0546875 243.355H59.6493M68.1628 243.355H76.6763M110.73 243.355H127.757M136.271 243.355H170.325M195.865 243.355H204.379M221.406 243.355H229.92" stroke="black" stroke-width="8.51351"/>
</svg>
